<?xml version="1.0" encoding="UTF-8"?>
<svg id="Layer_1" data-name="Layer 1" xmlns="http://www.w3.org/2000/svg" viewBox="0 0 100 100">
  <defs>
    <style>
      .cls-1 {
        fill: #fff;
      }

      .cls-1, .cls-2 {
        stroke-width: 0px;
      }

      .cls-2 {
        fill: #00c900;
      }
    </style>
  </defs>
  <g>
    <circle class="cls-1" cx="50" cy="50" r="47.5"/>
    <path class="cls-2" d="M50,5c24.81,0,45,20.19,45,45s-20.19,45-45,45S5,74.81,5,50,25.19,5,50,5M50,0h0C22.39,0,0,22.39,0,50h0c0,27.61,22.39,50,50,50h0c27.61,0,50-22.39,50-50h0C100,22.39,77.61,0,50,0h0Z"/>
  </g>
  <rect class="cls-2" x="31.96" y="21.4" width="12" height="57.2"/>
  <rect class="cls-2" x="55.96" y="21.4" width="12.09" height="57.2"/>
</svg>