<?xml version="1.0" encoding="UTF-8"?>
<svg id="Layer_1" data-name="Layer 1" xmlns="http://www.w3.org/2000/svg" viewBox="0 0 120 120">
  <defs>
    <style>
      .cls-1 {
        fill: #00c900;
        stroke-width: 0px;
      }
    </style>
  </defs>
  <polygon class="cls-1" points="86.31 60 33.73 29.65 33.73 90.35 86.31 60"/>
  <path class="cls-1" d="M85.43,15c10.79,0,19.57,8.78,19.57,19.57v50.85c0,10.79-8.78,19.57-19.57,19.57h-50.85c-10.79,0-19.57-8.78-19.57-19.57v-50.85c0-10.79,8.78-19.57,19.57-19.57h50.85M85.43,10h-50.85c-13.57,0-24.57,11-24.57,24.57v50.85c0,13.57,11,24.57,24.57,24.57h50.85c13.57,0,24.57-11,24.57-24.57v-50.85c0-13.57-11-24.57-24.57-24.57h0Z"/>
</svg>